HIERARCHY
ROOT Hips
{
	OFFSET	0.00	0.00	0.00
	CHANNELS 6 Xposition Yposition Zposition Zrotation Xrotation Yrotation
	JOINT LeftUpLeg
	{
		OFFSET	 0.126116	-0.014019	-0.065224
		CHANNELS 3 Zrotation Xrotation Yrotation
		JOINT LeftLeg
		{
			OFFSET	 0.000000	 0.000000	 0.569914
			CHANNELS 3 Zrotation Xrotation Yrotation
			JOINT LeftFoot
			{
				OFFSET	 0.000000	 0.000000	 0.544423
				CHANNELS 3 Zrotation Xrotation Yrotation
				JOINT LeftToeBase
				{
					OFFSET	 0.000000	 0.000000	 0.207117
					CHANNELS 3 Zrotation Xrotation Yrotation
					End Site
					{
						OFFSET	 0.000000	 0.000000	 0.207117
					}
				}
			}
		}
	}
	JOINT RightUpLeg
	{
		OFFSET	-0.124023	-0.008373	-0.065224
		CHANNELS 3 Zrotation Xrotation Yrotation
		JOINT RightLeg
		{
			OFFSET	 0.000000	 0.000000	 0.570047
			CHANNELS 3 Zrotation Xrotation Yrotation
			JOINT RightFoot
			{
				OFFSET	 0.000000	 0.000000	 0.544354
				CHANNELS 3 Zrotation Xrotation Yrotation
				JOINT RightToeBase
				{
					OFFSET	 0.000000	 0.000000	 0.207540
					CHANNELS 3 Zrotation Xrotation Yrotation
					End Site
					{
						OFFSET	 0.000000	 0.000000	 0.207540
					}
				}
			}
		}
	}
	JOINT Spine
	{
		OFFSET	 0.000184	-0.007763	 0.117403
		CHANNELS 3 Zrotation Xrotation Yrotation
		JOINT Spine1
		{
			OFFSET	 0.000000	 0.000000	 0.137269
			CHANNELS 3 Zrotation Xrotation Yrotation
			JOINT Spine2
			{
				OFFSET	 0.000000	 0.000000	 0.156879
				CHANNELS 3 Zrotation Xrotation Yrotation
				JOINT LeftShoulder
				{
					OFFSET	 0.080501	-0.002496	 0.160144
					CHANNELS 3 Zrotation Xrotation Yrotation
					JOINT LeftArm
					{
						OFFSET	 0.000000	 0.000000	 0.164363
						CHANNELS 3 Zrotation Xrotation Yrotation
						JOINT LeftForeArm
						{
							OFFSET	 0.000000	 0.000000	 0.364576
							CHANNELS 3 Zrotation Xrotation Yrotation
							JOINT LeftHand
							{
								OFFSET	 0.000000	 0.000000	 0.360812
								CHANNELS 3 Zrotation Xrotation Yrotation
								JOINT LeftHandIndex1
								{
									OFFSET	 0.000000	 0.000000	 0.086006
									CHANNELS 3 Zrotation Xrotation Yrotation
									JOINT LeftHandIndex2
									{
										OFFSET	 0.000000	 0.000000	 0.047237
										CHANNELS 3 Zrotation Xrotation Yrotation
										JOINT LeftHandIndex3
										{
											OFFSET	-0.004284	-0.000551	 0.038165
											CHANNELS 3 Zrotation Xrotation Yrotation
											End Site
											{
												OFFSET	-0.004284	-0.000551	 0.038165
											}
										}
									}
								}
							}
						}
					}
				}
				JOINT Neck
				{
					OFFSET	 0.000000	 0.000000	 0.176489
					CHANNELS 3 Zrotation Xrotation Yrotation
					JOINT Head
					{
						OFFSET	 0.000000	-0.001747	 0.077940
						CHANNELS 3 Zrotation Xrotation Yrotation
						End Site
						{
							OFFSET	 0.000000	-0.001747	 0.077940
						}
					}
				}
				JOINT RightShoulder
				{
					OFFSET	-0.080363	 0.000306	 0.159706
					CHANNELS 3 Zrotation Xrotation Yrotation
					JOINT RightArm
					{
						OFFSET	 0.000000	 0.000000	 0.164196
						CHANNELS 3 Zrotation Xrotation Yrotation
						JOINT RightForeArm
						{
							OFFSET	 0.000000	 0.000000	 0.365611
							CHANNELS 3 Zrotation Xrotation Yrotation
							JOINT RightHand
							{
								OFFSET	 0.000000	 0.000000	 0.360648
								CHANNELS 3 Zrotation Xrotation Yrotation
								JOINT RightHandIndex1
								{
									OFFSET	 0.000000	 0.000000	 0.069977
									CHANNELS 3 Zrotation Xrotation Yrotation
									JOINT RightHandIndex2
									{
										OFFSET	 0.000000	 0.000000	 0.052305
										CHANNELS 3 Zrotation Xrotation Yrotation
										JOINT RightHandIndex3
										{
											OFFSET	 0.009002	-0.000782	 0.042196
											CHANNELS 3 Zrotation Xrotation Yrotation
											End Site
											{
												OFFSET	 0.009002	-0.000782	 0.042196
											}
										}
									}
								}
							}
						}
					}
				}
			}
		}
	}
}
MOTION
Frames:    4
Frame Time: 0.03333334
-0.713829	-0.027900	 1.255599	 169.944700	-8.890203	-1.355804	-27.612200	-0.290677	-167.939000	-2.010949	-28.614290	-1.665599	 17.874130	 77.381940	-31.823380	-2.385833	 28.452760	 0.000004	 2.476277	 0.256162	-177.938900	 10.253440	-33.661330	 5.850590	-94.030890	 82.566310	 96.443980	 2.384659	 28.388700	-0.000001	 17.809260	 4.665406	-12.797970	 7.951261	 3.522397	-1.005996	-0.251353	 7.116275	 0.404757	-91.776270	 78.527430	-179.999900	-17.457400	 52.677240	-18.649630	-33.038580	 27.982130	-66.102810	-46.349880	-44.941940	-27.630810	-4.130354	 21.526190	 0.991307	-5.167926	 0.731697	 3.519349	-1.378229	 35.397820	-2.634230	 14.504400	 6.050092	-2.386782	 5.995322	-13.555710	-2.466319	 89.782110	 78.203870	 180.000000	-47.673740	 5.699974	 89.951430	 2.732296	 7.772775	 141.208500	-2.757793	-18.324650	-1.445157	 5.716295	 19.173350	-3.684826	 5.027458	 0.246833	-9.377971	-2.350882	 35.473990	 5.254307
-0.713953	-0.028280	 1.255202	 169.601700	-8.902996	-1.070445	-27.775720	-0.278628	-168.021800	-1.874073	-28.721000	-1.605297	 17.362230	 77.244490	-31.434370	-2.385833	 28.452760	 0.000004	 2.212649	 0.120468	-177.990700	 10.420890	-33.735550	 5.957089	-94.165860	 82.643650	 96.431930	 2.384659	 28.388700	-0.000001	 18.540210	 4.336329	-13.475140	 8.451497	 3.754429	-1.561337	-0.394665	 6.718243	 1.523164	-91.776180	 78.527380	-180.000000	-19.913220	 50.792690	-18.283130	-32.282150	 28.749420	-68.046650	-47.036680	-44.919850	-28.054650	-4.130354	 21.526190	 0.991307	-5.167926	 0.731697	 3.519349	-1.378229	 35.397820	-2.634230	 14.691660	 5.563247	-3.105598	 5.859587	-13.835970	-3.725253	 89.782100	 78.203870	-180.000000	-48.182490	 5.208066	 90.769260	 3.253989	 7.478767	 140.270600	-4.559132	-17.772340	-1.392323	 5.716295	 19.173350	-3.684826	 5.027458	 0.246833	-9.377971	-2.350882	 35.473990	 5.254307
-0.713738	-0.028838	 1.254755	 169.276300	-8.813496	-0.764723	-27.989960	-0.482897	-168.105400	-1.722359	-28.811100	-1.536615	 16.932880	 76.983150	-31.128640	-2.385833	 28.452760	 0.000004	 1.944138	-0.201147	-177.939800	 10.612630	-33.854540	 6.084906	-93.916820	 82.839900	 96.025840	 2.384659	 28.388700	-0.000001	 19.288070	 3.751564	-14.090930	 8.972078	 4.376747	-1.732883	-0.479764	 6.084901	 2.291323	-91.776130	 78.527400	 180.000000	-22.765930	 48.662740	-18.060510	-30.989090	 29.702580	-71.016770	-47.838500	-44.916020	-28.568750	-4.130354	 21.526190	 0.991307	-5.167926	 0.731697	 3.519349	-1.378229	 35.397820	-2.634230	 14.877410	 5.144581	-3.818729	 5.713809	-14.256550	-4.870085	 89.782140	 78.203870	 180.000000	-48.579930	 4.609023	 91.711700	 3.831140	 7.129084	 139.204700	-6.588714	-17.186560	-1.322685	 5.716295	 19.173350	-3.684826	 5.027458	 0.246833	-9.377971	-2.350882	 35.473990	 5.254307
-0.712987	-0.029178	 1.254351	 169.121000	-8.510271	-0.598534	-28.287280	-0.940869	-168.204600	-1.611379	-28.870140	-1.485799	 17.029770	 76.858100	-31.264410	-2.385833	 28.452760	 0.000004	 1.718698	-0.710552	-177.816600	 10.765690	-33.983230	 6.192825	-93.611110	 83.045740	 95.648250	 2.384659	 28.388700	-0.000001	 19.785120	 2.802694	-14.156790	 9.420117	 5.289045	-1.597056	-0.470896	 5.371126	 2.136329	-91.776220	 78.527380	-180.000000	-25.275750	 47.247280	-18.085360	-29.707660	 30.365440	-73.716290	-48.569750	-44.979150	-29.097870	-4.130354	 21.526190	 0.991307	-5.167926	 0.731697	 3.519349	-1.378229	 35.397820	-2.634230	 14.972500	 5.200032	-4.117928	 5.650002	-14.924730	-4.987057	 89.782070	 78.203890	-180.000000	-48.470680	 3.958783	 92.362750	 4.290176	 6.827958	 138.344600	-8.370606	-16.736570	-1.510504	 5.716295	 19.173350	-3.684826	 5.027458	 0.246833	-9.377971	-2.350882	 35.473990	 5.254307
